<svg viewBox="0 0 1178 385" fill="none" xmlns="http://www.w3.org/2000/svg">
<path d="M1074.35 256.214V152.822H1097.91L1099.99 170.332C1103.19 164.217 1107.77 159.353 1113.75 155.74C1119.86 152.127 1127.02 150.32 1135.22 150.32C1148.01 150.32 1157.94 154.35 1165.03 162.41C1172.12 170.471 1175.66 182.283 1175.66 197.847V256.214H1148.98V200.349C1148.98 191.455 1147.17 184.645 1143.56 179.92C1139.95 175.196 1134.32 172.833 1126.67 172.833C1119.17 172.833 1112.99 175.473 1108.12 180.754C1103.4 186.035 1101.03 193.4 1101.03 202.85V256.214H1074.35Z" fill="#0A1D10"/>
<path d="M989.691 258.715C980.797 258.715 973.501 257.325 967.804 254.546C962.106 251.628 957.867 247.806 955.088 243.081C952.309 238.356 950.919 233.145 950.919 227.447C950.919 217.859 954.671 210.076 962.175 204.101C969.68 198.125 980.936 195.137 995.944 195.137H1022.21V192.636C1022.21 185.549 1020.19 180.337 1016.16 177.002C1012.13 173.667 1007.13 171.999 1001.16 171.999C995.736 171.999 991.011 173.319 986.981 175.96C982.951 178.461 980.45 182.213 979.477 187.216H953.42C954.115 179.712 956.617 173.18 960.925 167.622C965.372 162.063 971.069 157.825 978.018 154.906C984.966 151.849 992.748 150.32 1001.36 150.32C1016.09 150.32 1027.7 154.003 1036.18 161.368C1044.65 168.734 1048.89 179.156 1048.89 192.636V256.214H1026.17L1023.67 239.537C1020.61 245.096 1016.3 249.682 1010.74 253.295C1005.32 256.908 998.307 258.715 989.691 258.715ZM995.736 237.87C1003.38 237.87 1009.29 235.368 1013.45 230.366C1017.76 225.363 1020.47 219.179 1021.58 211.813H998.863C991.775 211.813 986.703 213.134 983.646 215.774C980.589 218.275 979.06 221.402 979.06 225.154C979.06 229.184 980.589 232.311 983.646 234.535C986.703 236.758 990.733 237.87 995.736 237.87Z" fill="#0A1D10"/>
<path d="M900.101 256.214V106.129H926.783V256.214H900.101Z" fill="#0A1D10"/>
<path d="M774.108 256.214V110.298H828.097C839.77 110.298 849.429 112.243 857.072 116.134C864.715 120.025 870.413 125.376 874.165 132.185C877.917 138.994 879.793 146.638 879.793 155.115C879.793 163.175 877.986 170.61 874.373 177.419C870.76 184.089 865.132 189.509 857.489 193.678C849.845 197.708 840.048 199.723 828.097 199.723H800.79V256.214H774.108ZM800.79 178.044H826.429C835.74 178.044 842.411 176.029 846.441 171.999C850.61 167.83 852.694 162.202 852.694 155.115C852.694 147.888 850.61 142.26 846.441 138.23C842.411 134.061 835.74 131.977 826.429 131.977H800.79V178.044Z" fill="#0A1D10"/>
<path d="M706.697 258.715C697.525 258.715 689.465 257.256 682.517 254.338C675.568 251.28 670.009 247.111 665.84 241.83C661.671 236.55 659.17 230.435 658.336 223.487H685.226C686.06 227.517 688.284 230.991 691.897 233.909C695.649 236.689 700.443 238.078 706.28 238.078C712.117 238.078 716.355 236.897 718.996 234.535C721.775 232.172 723.165 229.462 723.165 226.405C723.165 221.958 721.219 218.97 717.328 217.442C713.437 215.774 708.017 214.176 701.069 212.647C696.622 211.675 692.105 210.493 687.519 209.104C682.933 207.714 678.695 205.977 674.804 203.892C671.052 201.669 667.994 198.889 665.632 195.554C663.27 192.08 662.088 187.842 662.088 182.839C662.088 173.667 665.701 165.954 672.928 159.701C680.293 153.447 690.577 150.32 703.779 150.32C716.008 150.32 725.735 153.169 732.962 158.867C740.327 164.564 744.705 172.416 746.094 182.422H720.872C719.343 174.779 713.576 170.957 703.57 170.957C698.567 170.957 694.676 171.93 691.897 173.875C689.256 175.821 687.936 178.253 687.936 181.171C687.936 184.228 689.951 186.66 693.981 188.467C698.011 190.273 703.362 191.941 710.032 193.47C717.258 195.137 723.859 197.013 729.835 199.098C735.95 201.043 740.813 204.031 744.427 208.061C748.04 211.952 749.846 217.581 749.846 224.946C749.985 231.338 748.318 237.106 744.844 242.247C741.369 247.389 736.367 251.419 729.835 254.338C723.304 257.256 715.591 258.715 706.697 258.715Z" fill="#0A1D10"/>
<path d="M579.302 258.715C570.408 258.715 563.113 257.325 557.415 254.546C551.717 251.628 547.479 247.806 544.699 243.081C541.92 238.356 540.53 233.145 540.53 227.447C540.53 217.859 544.282 210.076 551.787 204.101C559.291 198.125 570.547 195.137 585.556 195.137H611.821V192.636C611.821 185.549 609.806 180.337 605.776 177.002C601.746 173.667 596.743 171.999 590.767 171.999C585.347 171.999 580.622 173.319 576.592 175.96C572.562 178.461 570.061 182.213 569.088 187.216H543.032C543.727 179.712 546.228 173.18 550.536 167.622C554.983 162.063 560.681 157.825 567.629 154.906C574.577 151.849 582.36 150.32 590.976 150.32C605.706 150.32 617.31 154.003 625.787 161.368C634.264 168.734 638.502 179.156 638.502 192.636V256.214H615.781L613.28 239.537C610.223 245.096 605.915 249.682 600.356 253.295C594.936 256.908 587.918 258.715 579.302 258.715ZM585.347 237.87C592.991 237.87 598.897 235.368 603.066 230.366C607.374 225.363 610.084 219.179 611.195 211.813H588.474C581.387 211.813 576.314 213.134 573.257 215.774C570.2 218.275 568.671 221.402 568.671 225.154C568.671 229.184 570.2 232.311 573.257 234.535C576.314 236.758 580.344 237.87 585.347 237.87Z" fill="#0A1D10"/>
<path d="M456.669 258.715C441.939 258.715 429.293 255.588 418.731 249.335C408.17 242.942 400.04 234.118 394.342 222.862C388.645 211.466 385.796 198.334 385.796 183.464C385.796 168.595 388.645 155.462 394.342 144.067C400.04 132.672 408.17 123.778 418.731 117.385C429.293 110.993 441.939 107.796 456.669 107.796C474.179 107.796 488.493 112.174 499.61 120.929C510.867 129.545 517.885 141.704 520.664 157.408H491.272C489.466 149.487 485.575 143.303 479.599 138.856C473.762 134.27 465.98 131.977 456.252 131.977C442.773 131.977 432.211 136.563 424.568 145.735C416.925 154.906 413.103 167.483 413.103 183.464C413.103 199.445 416.925 212.022 424.568 221.194C432.211 230.227 442.773 234.743 456.252 234.743C465.98 234.743 473.762 232.659 479.599 228.49C485.575 224.182 489.466 218.276 491.272 210.771H520.664C517.885 225.78 510.867 237.523 499.61 246C488.493 254.477 474.179 258.715 456.669 258.715Z" fill="#0A1D10"/>
<path d="M167.79 0.729004L333.186 96.2443L257.812 139.82L258.526 244.159L333.162 287.309L167.792 382.872L2.35941 287.301L2.35938 96.2617L167.79 0.729004Z" fill="#298968"/>
<path d="M2.36035 96.272L167.982 192.038L2.36035 287.303V96.272Z" fill="#157553"/>
<path d="M167.8 86.9275L258.612 139.358V244.207L167.8 296.649L76.9873 244.219V139.43L167.8 86.9275Z" fill="#C5E1D7"/>
<path d="M167.8 86.9275V296.649L76.9878 244.379V139.433L167.8 86.9275Z" fill="#A4C1B7"/>
<path d="M167.799 86.9275L258.612 139.358L167.8 191.788L76.9878 139.432L167.799 86.9275Z" fill="#E4F1ED"/>
</svg>
